# xmcd CD database file generated by OrangeCD 5.2
#
# Track frame offsets:
#	150
#	14600
#	28440
#	42020
#	57302
#	71787
#	91015
#	104452
#	118432
#	130257
#	146382
#	160397
#
# Disc length: 2319 seconds
#
# Revision: 1
# Processed by: cddbd v1.5.1PL0 Copyright (c) Steve Scherf et al.
# Submitted via: OrangeCD 5.2
#
DISCID=af090d0c
DTITLE=Geirmundur Valtýsson - Geirmundur Valtýsson
DYEAR=1993
DGENRE=Pop
TTITLE0=Ég vil dansa í alla nótt
TTITLE1=Mylluhjólið
TTITLE2=Bless Bless
TTITLE3=Komdu til mín aftur
TTITLE4=Rokkum í nótt
TTITLE5=Minningar
TTITLE6=Í sveitinni
TTITLE7=Að vona
TTITLE8=Komdu heim
TTITLE9=Vinur minn smái
TTITLE10=Ég skemmti mér
TTITLE11=Láttu ekki svona
EXTD=
EXTT0=
EXTT1=
EXTT2=
EXTT3=
EXTT4=
EXTT5=
EXTT6=
EXTT7=
EXTT8=
EXTT9=
EXTT10=
EXTT11=
PLAYORDER=
